HIERARCHY
ROOT hip
{
  OFFSET 0 0 0
  CHANNELS 6 Xposition Yposition Zposition Zrotation Yrotation Xrotation
  JOINT abdomen
  {
    OFFSET 0 20.6881 -0.73152
    CHANNELS 3 Zrotation Xrotation Yrotation
    JOINT chest
    {
      OFFSET 0 11.7043 -0.48768
      CHANNELS 3 Zrotation Xrotation Yrotation
      JOINT neck
      {
        OFFSET 0 22.1894 -2.19456
        CHANNELS 3 Zrotation Xrotation Yrotation
        JOINT head
        {
          OFFSET -0.24384 7.07133 1.2192
          CHANNELS 3 Zrotation Xrotation Yrotation
          JOINT leftEye
          {
            OFFSET 4.14528 8.04674 8.04672
            CHANNELS 3 Zrotation Xrotation Yrotation
            End Site
            {
              OFFSET 1 0 0
            }
          }
          JOINT rightEye
          {
            OFFSET -3.6576 8.04674 8.04672
            CHANNELS 3 Zrotation Xrotation Yrotation
            End Site
            {
              OFFSET 1 0 0
            }
          }
        }
      }
      JOINT rCollar
      {
        OFFSET -2.68224 19.2634 -4.8768
        CHANNELS 3 Zrotation Xrotation Yrotation
        JOINT rShldr
        {
          OFFSET -8.77824 -1.95073 1.46304
          CHANNELS 3 Zrotation Xrotation Yrotation
          JOINT rForeArm
          {
            OFFSET -28.1742 -1.7115 0.48768
            CHANNELS 3 Zrotation Xrotation Yrotation
            JOINT rHand
            {
              OFFSET -22.5879 0.773209 7.07136
              CHANNELS 3 Zrotation Xrotation Yrotation
              JOINT rThumb1
              {
                OFFSET -1.2192 -0.487915 3.41376
                CHANNELS 3 Zrotation Xrotation Yrotation
                JOINT rThumb2
                {
                  OFFSET -3.37035 -0.52449 3.41376
                  CHANNELS 3 Zrotation Xrotation Yrotation
                  End Site
                  {
                    OFFSET -1.78271 -1.18214 1.43049
                  }
                }
              }
              JOINT rIndex1
              {
                OFFSET -7.75947 0.938293 5.60832
                CHANNELS 3 Zrotation Xrotation Yrotation
                JOINT rIndex2
                {
                  OFFSET -2.54057 -0.884171 1.56538
                  CHANNELS 3 Zrotation Xrotation Yrotation
                  End Site
                  {
                    OFFSET -1.62519 -0.234802 1.16502
                  }
                }
              }
              JOINT rMid1
              {
                OFFSET -8.24714 1.18213 3.41376
                CHANNELS 3 Zrotation Xrotation Yrotation
                JOINT rMid2
                {
                  OFFSET -3.10165 -0.590103 1.0647
                  CHANNELS 3 Zrotation Xrotation Yrotation
                  End Site
                  {
                    OFFSET -2.48547 -0.328903 0.83742
                  }
                }
              }
              JOINT rRing1
              {
                OFFSET -8.82822 0.546677 1.51678
                CHANNELS 3 Zrotation Xrotation Yrotation
                JOINT rRing2
                {
                  OFFSET -2.60934 -0.819778 -0.0198488
                  CHANNELS 3 Zrotation Xrotation Yrotation
                  End Site
                  {
                    OFFSET -2.33842 -0.294052 0.168128
                  }
                }
              }
              JOINT rPinky1
              {
                OFFSET -8.27202 -0.0477905 -0.4584
                CHANNELS 3 Zrotation Xrotation Yrotation
                JOINT rPinky2
                {
                  OFFSET -1.82734 -0.647385 -0.700984
                  CHANNELS 3 Zrotation Xrotation Yrotation
                  End Site
                  {
                    OFFSET -1.69225 -0.51767 -0.607171
                  }
                }
              }
            }
          }
        }
      }
      JOINT lCollar
      {
        OFFSET 2.68224 19.2634 -4.8768
        CHANNELS 3 Zrotation Xrotation Yrotation
        JOINT lShldr
        {
          OFFSET 8.77824 -1.95073 1.46304
          CHANNELS 3 Zrotation Xrotation Yrotation
          JOINT lForeArm
          {
            OFFSET 28.1742 -1.7115 0.48768
            CHANNELS 3 Zrotation Xrotation Yrotation
            JOINT lHand
            {
              OFFSET 22.5879 0.773209 7.07136
              CHANNELS 3 Zrotation Xrotation Yrotation
              JOINT lThumb1
              {
                OFFSET 1.2192 -0.487915 3.41376
                CHANNELS 3 Zrotation Xrotation Yrotation
                JOINT lThumb2
                {
                  OFFSET 3.37035 -0.52449 3.41376
                  CHANNELS 3 Zrotation Xrotation Yrotation
                  End Site
                  {
                    OFFSET 1.78271 -1.18214 1.43049
                  }
                }
              }
              JOINT lIndex1
              {
                OFFSET 7.75947 0.938293 5.60832
                CHANNELS 3 Zrotation Xrotation Yrotation
                JOINT lIndex2
                {
                  OFFSET 2.54057 -0.884171 1.56538
                  CHANNELS 3 Zrotation Xrotation Yrotation
                  End Site
                  {
                    OFFSET 1.62519 -0.234802 1.16502
                  }
                }
              }
              JOINT lMid1
              {
                OFFSET 8.24714 1.18213 3.41376
                CHANNELS 3 Zrotation Xrotation Yrotation
                JOINT lMid2
                {
                  OFFSET 3.10165 -0.590103 1.0647
                  CHANNELS 3 Zrotation Xrotation Yrotation
                  End Site
                  {
                    OFFSET 2.48547 -0.328903 0.83742
                  }
                }
              }
              JOINT lRing1
              {
                OFFSET 8.82822 0.546677 1.51678
                CHANNELS 3 Zrotation Xrotation Yrotation
                JOINT lRing2
                {
                  OFFSET 2.60934 -0.819778 -0.0198488
                  CHANNELS 3 Zrotation Xrotation Yrotation
                  End Site
                  {
                    OFFSET 2.33842 -0.294052 0.168128
                  }
                }
              }
              JOINT lPinky1
              {
                OFFSET 8.27202 -0.0477905 -0.4584
                CHANNELS 3 Zrotation Xrotation Yrotation
                JOINT lPinky2
                {
                  OFFSET 1.82734 -0.647385 -0.700984
                  CHANNELS 3 Zrotation Xrotation Yrotation
                  End Site
                  {
                    OFFSET 1.69225 -0.51767 -0.607171
                  }
                }
              }
            }
          }
        }
      }
    }
  }
  JOINT rButtock
  {
    OFFSET -8.77824 4.35084 1.2192
    CHANNELS 3 Zrotation Xrotation Yrotation
    JOINT rThigh
    {
      OFFSET 0 -1.70687 -2.19456
      CHANNELS 3 Zrotation Xrotation Yrotation
      JOINT rShin
      {
        OFFSET 0 -36.8199 0.73152
        CHANNELS 3 Zrotation Xrotation Yrotation
        JOINT rFoot
        {
          OFFSET 0.73152 -45.1104 -5.12064
          CHANNELS 3 Zrotation Xrotation Yrotation
          End Site
          {
            OFFSET -1.1221 -3.69964 12.103
          }
        }
      }
    }
  }
  JOINT lButtock
  {
    OFFSET 8.77824 4.35084 1.2192
    CHANNELS 3 Zrotation Xrotation Yrotation
    JOINT lThigh
    {
      OFFSET 0 -1.70687 -2.19456
      CHANNELS 3 Zrotation Xrotation Yrotation
      JOINT lShin
      {
        OFFSET 0 -36.8199 0.73152
        CHANNELS 3 Zrotation Xrotation Yrotation
        JOINT lFoot
        {
          OFFSET -0.73152 -45.1104 -5.12064
          CHANNELS 3 Zrotation Xrotation Yrotation
          End Site
          {
            OFFSET 1.1221 -3.69964 12.103
          }
        }
      }
    }
  }
}
MOTION
Frames:	6
Frame Time:	0.00833333
-162.951 85.4571 11.4025 0.0 0.0 0.0 1.92988 -0.00172202 0.0523831 0.532086 0.00507058 0.0921232 -5.72912e-14 -1.59028e-15 9.93924e-17 -1.71405e-13 3.18055e-15 2.98177e-16 -0.0 0.0 0.0 -0.0 0.0 0.0 -2.81297e-14 1.06187e-16 2.48481e-16 -5.96198e-13 2.05618e-15 -1.98785e-16 -1.02953e-11 3.15451e-12 1.30403e-13 -1.1778e-10 -2.66386e-12 3.18055e-15 -2.77849e-10 1.06895e-12 3.49861e-13 -4.79847e-10 1.84472e-12 6.13847e-13 -2.77848e-10 1.06708e-12 3.33958e-13 7.73091 5.47488 0.417314 -2.7785e-10 1.06797e-12 3.56222e-13 2.90554 0.965183 0.102902 -2.77845e-10 1.06896e-12 3.53837e-13 10.2786 0.731801 0.0259123 -2.77862e-10 1.07264e-12 3.72125e-13 2.22167 -0.733487 -0.20892 -2.82277e-14 1.11816e-16 -1.98785e-16 -5.9925e-13 2.12451e-15 -1.39149e-15 -1.02875e-11 -3.00244e-12 1.08139e-13 -1.17792e-10 3.50055e-12 5.40694e-14 -2.7785e-10 1.08185e-12 3.65764e-13 -4.79819e-10 1.87335e-12 6.2816e-13 -2.77855e-10 1.08298e-12 3.68944e-13 -7.73091 5.47488 -0.417314 -2.77849e-10 1.08169e-12 3.59403e-13 -2.90554 0.965183 -0.102902 -2.77856e-10 1.08179e-12 3.57812e-13 -10.2786 0.731801 -0.0259123 -2.77838e-10 1.08616e-12 3.435e-13 -2.22167 -0.733487 0.20892 -2.03217e-16 0.0 -3.88251e-19 1.95952 -7.26115 -0.192019 0.0041203 7.58527 0.10706 -0.521338 -0.330664 0.0523338 2.03217e-16 0.0 3.88251e-19 0.977506 -1.92613 0.000856029 0.00898134 -2.0786 0.0740114 0.487039 3.99809 -0.136614
-156.547 85.3728 3.04374 18.1421 82.5606 19.0027 0.364321 1.6029 1.14464 1.30073 -0.443641 0.430034 1.17357 -1.21883 1.10444 -1.18845 1.57377 1.95101 -0.0 0.0 0.0 -0.0 0.0 0.0 -2.20129e-14 -1.4095e-12 5.20793e-14 21.4736 8.48122 -0.246709 -4.92129 -2.39595 7.50542 0.00231271 1.07873 0.151512 -4.28287e-10 -2.79167e-11 4.14886e-10 -7.37146e-10 -4.82696e-11 7.18381e-10 -4.28285e-10 -2.79166e-11 4.14872e-10 7.73091 5.47488 0.417314 -4.28287e-10 -2.79153e-11 4.14888e-10 2.90554 0.965183 0.102902 -4.28281e-10 -2.79158e-11 4.14888e-10 10.2786 0.731801 0.0259123 -4.28296e-10 -2.79129e-11 4.14901e-10 2.22167 -0.733487 -0.20892 -2.21413e-14 -1.40949e-12 5.1658e-14 -21.437 12.6172 -1.09743 4.48605 -2.09405 -6.94553 -0.0237298 3.41831 -0.477329 1.05468e-10 -2.49648e-10 -2.58038e-10 1.7912e-10 -4.31356e-10 -4.49801e-10 1.05464e-10 -2.49645e-10 -2.58036e-10 -7.73091 5.47488 -0.417314 1.05469e-10 -2.49647e-10 -2.58043e-10 -2.90554 0.965183 -0.102902 1.0546e-10 -2.49646e-10 -2.58043e-10 -10.2786 0.731801 -0.0259123 1.05477e-10 -2.49643e-10 -2.58052e-10 -2.22167 -0.733487 0.20892 -2.03217e-16 0.0 -3.88251e-19 -1.48993 -4.27969 -0.781431 0.00238127 8.15694 0.118148 -0.599962 -5.03438 -2.03605 2.03217e-16 0.0 3.88251e-19 3.34297 1.36741 0.57775 0.00450196 -2.12394 0.0357168 0.71453 0.327669 3.91234
-156.54 85.3766 3.0708 18.2939 82.5248 19.1222 -1.34213 3.29332 2.30231 2.11836 -0.917311 0.787638 2.46705 -2.49634 2.27348 -2.57047 3.22617 4.01867 -0.0 0.0 0.0 -0.0 0.0 0.0 -1.54963e-14 -2.97035e-12 1.09425e-13 44.245 17.4392 -0.516924 -9.43726 -4.78363 15.4665 -0.00150772 2.23756 0.31446 -5.84645e-10 -6.36062e-11 8.29992e-10 -1.00458e-09 -1.09944e-10 1.43714e-09 -5.84643e-10 -6.3604e-11 8.2998e-10 7.73091 5.47488 0.417314 -5.84644e-10 -6.36021e-11 8.2999e-10 2.90554 0.965183 0.102902 -5.84638e-10 -6.36043e-11 8.29992e-10 10.2786 0.731801 0.0259123 -5.84651e-10 -6.36021e-11 8.30001e-10 2.22167 -0.733487 -0.20892 -1.5658e-14 -2.97035e-12 1.0903e-13 -43.5398 25.9356 -2.44388 8.6704 -4.1974 -14.3019 0.0135582 7.03542 -0.988212 4.72293e-10 -4.98184e-10 -5.35564e-10 8.09278e-10 -8.60819e-10 -9.33078e-10 4.7229e-10 -4.9818e-10 -5.35563e-10 -7.73091 5.47488 -0.417314 4.72293e-10 -4.98181e-10 -5.35567e-10 -2.90554 0.965183 -0.102902 4.72283e-10 -4.98181e-10 -5.35567e-10 -10.2786 0.731801 -0.0259123 4.72299e-10 -4.98179e-10 -5.35571e-10 -2.22167 -0.733487 0.20892 -2.03217e-16 0.0 -3.88251e-19 -5.05325 -1.12009 -1.38818 0.000341363 8.74828 0.129692 -1.06289 -9.98278 -4.30762 2.03217e-16 0.0 3.88251e-19 5.78328 4.84733 1.1949 -0.000292196 -2.17128 -0.00473728 1.51665 -3.50822 8.20499
-156.549 85.3705 3.10088 18.1738 82.4879 19.0446 -2.95077 4.80497 3.33956 2.85389 -1.34085 1.10612 3.66184 -3.65104 3.31932 -3.8872 4.69938 5.87061 -0.0 0.0 0.0 -0.0 0.0 0.0 -9.7794e-15 -4.2287e-12 1.55741e-13 64.66 25.4417 -0.810651 -12.9239 -6.69556 22.6595 -0.0102005 3.23611 0.455183 -7.29162e-10 -8.5888e-11 1.24396e-09 -1.25174e-09 -1.48498e-10 2.15392e-09 -7.2916e-10 -8.58841e-11 1.24395e-09 7.73091 5.47488 0.417314 -7.2916e-10 -8.58819e-11 1.24395e-09 2.90554 0.965183 0.102902 -7.29153e-10 -8.58854e-11 1.24396e-09 10.2786 0.731801 0.0259123 -7.29165e-10 -8.5884e-11 1.24396e-09 2.22167 -0.733487 -0.20892 -9.96849e-15 -4.2287e-12 1.55372e-13 -62.5358 37.7884 -4.06667 11.9656 -5.91367 -20.9392 0.102018 10.2521 -1.45264 8.72104e-10 -7.51107e-10 -7.74845e-10 1.497e-09 -1.29781e-09 -1.35066e-09 8.72103e-10 -7.51102e-10 -7.74845e-10 -7.73091 5.47488 -0.417314 8.72104e-10 -7.51103e-10 -7.74847e-10 -2.90554 0.965183 -0.102902 8.72092e-10 -7.51103e-10 -7.74845e-10 -10.2786 0.731801 -0.0259123 8.72108e-10 -7.51101e-10 -7.74844e-10 -2.22167 -0.733487 0.20892 -2.03217e-16 0.0 -3.88251e-19 -8.20497 1.68114 -1.95764 -0.00176995 9.30028 0.140459 -1.8119 -14.3653 -6.38982 2.03217e-16 0.0 3.88251e-19 7.87347 7.95105 1.74785 -0.00463876 -2.21462 -0.0408792 2.72157 -6.85671 12.0972
-156.571 85.3576 3.1412 17.8324 82.4006 18.7958 -4.18556 5.87646 4.06598 3.37297 -1.63927 1.32655 4.51208 -4.50376 4.05163 -4.81513 5.74533 7.16675 -0.0 0.0 0.0 -0.0 0.0 0.0 -6.06154e-15 -4.73078e-12 1.74483e-13 79.0248 31.0567 -1.10336 -15.1018 -7.87874 27.7983 -0.018063 3.83406 0.539656 -8.44075e-10 -7.46508e-11 1.65507e-09 -1.44825e-09 -1.29251e-10 2.86572e-09 -8.44072e-10 -7.4646e-11 1.65506e-09 7.73091 5.47488 0.417314 -8.44074e-10 -7.46441e-11 1.65507e-09 2.90554 0.965183 0.102902 -8.44065e-10 -7.46478e-11 1.65507e-09 10.2786 0.731801 0.0259123 -8.44075e-10 -7.46472e-11 1.65507e-09 2.22167 -0.733487 -0.20892 -6.26352e-15 -4.73078e-12 1.74135e-13 -75.0687 46.033 -5.69331 14.064 -7.00624 -25.6829 0.19461 12.4703 -1.78109 1.35438e-09 -1.01499e-09 -9.18512e-10 2.32863e-09 -1.75365e-09 -1.604e-09 1.35438e-09 -1.01499e-09 -9.18512e-10 -7.73091 5.47488 -0.417314 1.35438e-09 -1.01499e-09 -9.18512e-10 -2.90554 0.965183 -0.102902 1.35437e-09 -1.01499e-09 -9.1851e-10 -10.2786 0.731801 -0.0259123 1.35438e-09 -1.01499e-09 -9.18506e-10 -2.22167 -0.733487 0.20892 -2.03217e-16 0.0 -3.88251e-19 -10.451 3.58863 -2.43102 -0.00363237 9.75392 0.149197 -2.51158 -17.408 -7.82906 2.03217e-16 0.0 3.88251e-19 9.23212 10.1178 2.12292 -0.00774198 -2.24795 -0.0662363 3.84595 -9.14971 14.8796
-156.588 85.3257 3.15535 18.3842 82.3161 19.4274 -4.85319 6.33958 4.34979 3.58876 -1.76425 1.40934 4.84227 -4.9547 4.34705 -5.09597 6.23581 7.68303 -0.0 0.0 0.0 -0.0 0.0 0.0 -5.45498e-15 -4.11748e-12 1.54602e-13 84.8244 33.3107 -1.32599 -15.959 -8.35041 29.9694 -0.0195861 3.88161 0.546413 -1.00198e-09 1.33095e-11 2.26097e-09 -1.71901e-09 2.21649e-11 3.91484e-09 -1.00198e-09 1.33134e-11 2.26096e-09 7.73091 5.47488 0.417314 -1.00198e-09 1.3314e-11 2.26096e-09 2.90554 0.965183 0.102902 -1.00197e-09 1.3312e-11 2.26096e-09 10.2786 0.731801 0.0259123 -1.00198e-09 1.33115e-11 2.26096e-09 2.22167 -0.733487 -0.20892 -5.64859e-15 -4.11748e-12 1.54265e-13 -79.5529 49.3013 -6.5587 14.9116 -7.46033 -27.7151 0.235586 13.2729 -1.90209 2.21107e-09 -1.44718e-09 -9.74016e-10 3.80882e-09 -2.49998e-09 -1.70939e-09 2.21107e-09 -1.44718e-09 -9.74013e-10 -7.73091 5.47488 -0.417314 2.21107e-09 -1.44718e-09 -9.74013e-10 -2.90554 0.965183 -0.102902 2.21106e-09 -1.44718e-09 -9.7401e-10 -10.2786 0.731801 -0.0259123 2.21108e-09 -1.44718e-09 -9.74005e-10 -2.22167 -0.733487 0.20892 -2.03217e-16 0.0 -3.88251e-19 -11.508 4.25458 -2.7806 -0.00494538 10.0629 0.154894 -2.7774 -18.6132 -8.23202 2.03217e-16 0.0 3.88251e-19 9.61381 10.9831 2.21601 -0.00905685 -2.27499 -0.0762224 4.37523 -10.0784 16.0396
